<svg width="128" height="128" viewBox="0 0 128 128" fill="none" xmlns="http://www.w3.org/2000/svg">
  <rect x="14" y="18" width="100" height="76" rx="16" fill="#111418"/>
  <rect x="22" y="28" width="84" height="56" rx="10" fill="#1E252D"/>
  <rect x="36" y="40" width="24" height="18" rx="6" fill="#7C3AED"/>
  <rect x="66" y="40" width="24" height="6" rx="3" fill="#94A3B8"/>
  <rect x="66" y="52" width="18" height="6" rx="3" fill="#64748B"/>
  <rect x="36" y="64" width="54" height="6" rx="3" fill="#475569"/>
  <path d="M82.5 79.5C90.5081 79.5 97 73.0081 97 65C97 56.9919 90.5081 50.5 82.5 50.5C74.4919 50.5 68 56.9919 68 65C68 73.0081 74.4919 79.5 82.5 79.5Z" fill="#F8FAFC" fill-opacity="0.08" stroke="#F8FAFC" stroke-width="5"/>
  <path d="M93 76L106 89" stroke="#F8FAFC" stroke-width="6" stroke-linecap="round"/>
  <rect x="74" y="58" width="17" height="14" rx="4" fill="#F97316" stroke="#F8FAFC" stroke-width="2"/>
  <rect x="26" y="98" width="76" height="10" rx="5" fill="#2B3440"/>
</svg>
